<svg width="739" height="607" viewBox="0 0 739 607" fill="none" xmlns="http://www.w3.org/2000/svg">
<g filter="url(#filter0_d_27_11)">
<path d="M83.5724 315.981L157.645 390.046C167.989 400.39 182.019 406.201 196.647 406.2H235.642C250.271 406.201 264.3 412.012 274.645 422.355L363.475 511.179C373.819 521.522 387.848 527.333 402.477 527.334H616.97C641.772 527.334 661.879 507.228 661.879 482.426C661.878 476.528 660.717 470.688 658.46 465.239C656.203 459.791 652.894 454.84 648.724 450.67L601.07 403.019C594.432 396.382 594.432 385.621 601.069 378.983C602.647 377.405 604.52 376.153 606.583 375.299C608.645 374.445 610.855 374.005 613.087 374.005C622.474 374.005 630.083 366.396 630.083 357.009C630.083 352.501 628.292 348.178 625.105 344.991L517.357 237.251C507.013 226.907 492.983 221.096 478.354 221.096H349.035C334.406 221.096 320.376 215.285 310.032 204.941L290.586 185.497C280.242 175.153 266.212 169.343 251.584 169.343H121.873C104.349 169.343 90.1431 183.549 90.1431 201.072C90.1431 205.24 90.964 209.366 92.5588 213.215C94.1535 217.065 96.491 220.563 99.4376 223.51L115.302 239.374C124.065 248.135 124.066 262.343 115.304 271.105C113.22 273.188 110.747 274.841 108.025 275.969C105.302 277.097 102.384 277.677 99.4376 277.677C87.0458 277.677 77 287.722 77 300.114C77 303.061 77.5804 305.979 78.7081 308.701C79.8358 311.423 81.4887 313.897 83.5724 315.981V315.981Z" fill="black"/>
</g>
<path d="M83.5724 315.981L157.645 390.046C167.989 400.39 182.019 406.201 196.647 406.2H235.642C250.271 406.201 264.3 412.012 274.645 422.355L363.475 511.179C373.819 521.522 387.848 527.333 402.477 527.334H616.97C641.772 527.334 661.879 507.228 661.879 482.426C661.878 476.528 660.717 470.688 658.46 465.239C656.203 459.791 652.894 454.84 648.724 450.67L601.07 403.019C594.432 396.382 594.432 385.621 601.069 378.983C602.647 377.405 604.52 376.153 606.583 375.299C608.645 374.445 610.855 374.005 613.087 374.005C622.474 374.005 630.083 366.396 630.083 357.009C630.083 352.501 628.292 348.178 625.105 344.991L517.357 237.251C507.013 226.907 492.983 221.096 478.354 221.096H349.035C334.406 221.096 320.376 215.285 310.032 204.941L290.586 185.497C280.242 175.153 266.212 169.343 251.584 169.343H121.873C104.349 169.343 90.1431 183.549 90.1431 201.072C90.1431 205.24 90.964 209.366 92.5588 213.215C94.1535 217.065 96.491 220.563 99.4376 223.51L115.302 239.374C124.065 248.135 124.066 262.343 115.304 271.105C113.22 273.188 110.747 274.841 108.025 275.969C105.302 277.097 102.384 277.677 99.4376 277.677C87.0458 277.677 77 287.722 77 300.114C77 303.061 77.5804 305.979 78.7081 308.701C79.8358 311.423 81.4887 313.897 83.5724 315.981V315.981Z" fill="#2D314D"/>
<path fill-rule="evenodd" clip-rule="evenodd" d="M159.694 146.639L233.766 220.704C244.111 231.047 258.14 236.858 272.769 236.858H311.764C326.392 236.858 340.422 242.669 350.766 253.013L439.597 341.836C449.941 352.18 463.97 357.991 478.598 357.991H693.091C717.894 357.991 738 337.885 738 313.083C738 307.185 736.838 301.345 734.581 295.897C732.324 290.448 729.016 285.497 724.845 281.327L677.191 233.676C670.554 227.039 670.553 216.279 677.19 209.641C678.768 208.062 680.642 206.81 682.704 205.956C684.766 205.102 686.976 204.662 689.208 204.662C698.595 204.662 706.205 197.053 706.205 187.666C706.205 183.159 704.414 178.835 701.226 175.648L593.479 67.9081C583.134 57.5643 569.105 51.7533 554.476 51.7532H425.156C410.528 51.7532 396.498 45.9421 386.154 35.5984L366.708 16.1543C356.363 5.81087 342.334 5.20894e-05 327.706 0H197.995C180.471 0 166.265 14.206 166.265 31.73C166.265 35.897 167.086 40.0232 168.68 43.8729C170.275 47.7227 172.613 51.2206 175.559 54.167L191.424 70.0312C200.187 78.7929 200.187 93 191.426 101.762C189.342 103.846 186.868 105.499 184.146 106.627C181.424 107.754 178.506 108.335 175.559 108.335C163.167 108.335 153.122 118.38 153.122 130.772C153.122 133.718 153.702 136.636 154.83 139.359C155.957 142.081 157.61 144.555 159.694 146.638V146.639Z" fill="url(#paint0_linear_27_11)"/>
<defs>
<filter id="filter0_d_27_11" x="0" y="94.3425" width="738.878" height="511.991" filterUnits="userSpaceOnUse" color-interpolation-filters="sRGB">
<feFlood flood-opacity="0" result="BackgroundImageFix"/>
<feColorMatrix in="SourceAlpha" type="matrix" values="0 0 0 0 0 0 0 0 0 0 0 0 0 0 0 0 0 0 127 0" result="hardAlpha"/>
<feOffset dy="2"/>
<feGaussianBlur stdDeviation="38.5"/>
<feColorMatrix type="matrix" values="0 0 0 0 0 0 0 0 0 0 0 0 0 0 0 0 0 0 0.0240111 0"/>
<feBlend mode="normal" in2="BackgroundImageFix" result="effect1_dropShadow_27_11"/>
<feBlend mode="normal" in="SourceGraphic" in2="effect1_dropShadow_27_11" result="shape"/>
</filter>
<linearGradient id="paint0_linear_27_11" x1="153.122" y1="12940.3" x2="52201.8" y2="36499.9" gradientUnits="userSpaceOnUse">
<stop stop-color="#33D35E"/>
<stop offset="1" stop-color="#2AB6D9"/>
</linearGradient>
</defs>
</svg>
